<svg xmlns="http://www.w3.org/2000/svg" xmlns:xlink="http://www.w3.org/1999/xlink" width="28" height="26" viewBox="0 0 28 26"><defs><style>.a{fill:none;}.b,.c{stroke:none;}.c{fill:#fff;}.d{filter:url(#a);}</style><filter id="a" x="0" y="0" width="28" height="26" filterUnits="userSpaceOnUse"><feOffset dy="1" input="SourceAlpha"/><feGaussianBlur stdDeviation="1" result="b"/><feFlood flood-opacity="0.161"/><feComposite operator="in" in2="b"/><feComposite in="SourceGraphic"/></filter></defs><g class="d" transform="matrix(1, 0, 0, 1, 0, 0)"><g class="a" transform="translate(-2982.66 -1243.76)"><path class="b" d="M3005.767,1247.634a6.469,6.469,0,0,0-9.112,0,6.468,6.468,0,0,0-9.112,0,6.381,6.381,0,0,0,0,9.062l9.112,9.061,9.112-9.061A6.381,6.381,0,0,0,3005.767,1247.634Z"/><path class="c" d="M 2992.099365234375 1247.757080078125 C 2990.910400390625 1247.757080078125 2989.79345703125 1248.216918945312 2988.953369140625 1249.052368164062 C 2988.116455078125 1249.884155273438 2987.655517578125 1250.989135742188 2987.6552734375 1252.163818359375 C 2987.655029296875 1253.339233398438 2988.1162109375 1254.445068359375 2988.95361328125 1255.277709960938 L 2996.6552734375 1262.936401367188 L 3004.357177734375 1255.277709960938 C 3005.1943359375 1254.445068359375 3005.655517578125 1253.339233398438 3005.6552734375 1252.163818359375 C 3005.6552734375 1250.989135742188 3005.1943359375 1249.884033203125 3004.35693359375 1249.051879882812 C 3003.517333984375 1248.216918945312 3002.400390625 1247.757080078125 3001.21142578125 1247.757080078125 C 3000.0224609375 1247.757080078125 2998.9052734375 1248.216918945312 2998.0654296875 1249.052001953125 L 2996.6552734375 1250.454345703125 L 2995.244873046875 1249.051879882812 C 2994.4052734375 1248.216918945312 2993.288330078125 1247.757080078125 2992.099365234375 1247.757080078125 M 2992.099365234375 1245.757080078125 C 2993.748291015625 1245.757080078125 2995.397216796875 1246.382568359375 2996.6552734375 1247.6337890625 C 2997.91357421875 1246.382568359375 2999.5625 1245.757080078125 3001.21142578125 1245.757080078125 C 3002.8603515625 1245.757080078125 3004.50927734375 1246.382568359375 3005.767333984375 1247.6337890625 C 3008.28466796875 1250.135864257812 3008.28466796875 1254.192626953125 3005.767333984375 1256.695922851562 L 2996.6552734375 1265.756958007812 L 2987.54345703125 1256.695922851562 C 2985.02587890625 1254.192626953125 2985.02587890625 1250.135864257812 2987.54345703125 1247.6337890625 C 2988.801513671875 1246.382568359375 2990.450439453125 1245.757080078125 2992.099365234375 1245.757080078125 Z"/></g></g></svg>