<svg xmlns="http://www.w3.org/2000/svg" width="15.732" height="12.784" viewBox="0 0 15.732 12.784"><defs><style>.a{fill:#bf995c;}</style></defs><g transform="translate(0)"><path class="a" d="M47.549,5.4a.268.268,0,0,0-.062.249,1.776,1.776,0,0,1-.361,1.543.4.4,0,0,0-.092.324,2.087,2.087,0,0,1-.449,1.6.276.276,0,0,0-.053.213,1.457,1.457,0,0,1-1.422,1.728c-.551.048-6.015.03-6.015.03-.27,0-.766.014-.766-.18V4.37a1.95,1.95,0,0,1,.349-1.111c.177-.255.353-.51.527-.767.129-.186.239-.383.386-.557a1.857,1.857,0,0,0,.361-1.6c-.055-.365-.085-.742-.1-1.114a.672.672,0,0,1,.232-.532,1.6,1.6,0,0,1,2.034-.031A3.009,3.009,0,0,1,43.334.778a5.423,5.423,0,0,1-.2,2.217l-.037.144v.048h3.467a1.335,1.335,0,0,1,1.378,1.066A1.31,1.31,0,0,1,47.549,5.4Z" transform="translate(-32.234 1.691)"/><path class="a" d="M29.912,8a1.058,1.058,0,0,0-1.058,1.058v5.015a1.059,1.059,0,0,0,1.058,1.058h4.093V8Zm2.725,6.468a.613.613,0,1,1,.613-.613A.613.613,0,0,1,32.638,14.471Z" transform="translate(-28.854 -2.351)"/></g></svg>