<svg xmlns="http://www.w3.org/2000/svg" width="15.731" height="10.488" viewBox="0 0 15.731 10.488"><defs><style>.a{fill:#bf995c;}</style></defs><path class="a" d="M3341.483,1148.58h-12.236a1.748,1.748,0,0,0-1.748,1.748v6.992a1.748,1.748,0,0,0,1.748,1.748h12.236a1.747,1.747,0,0,0,1.748-1.748v-6.992A1.748,1.748,0,0,0,3341.483,1148.58Zm.21,2.631-4.846,4.986a2.058,2.058,0,0,1-2.963,0l-4.846-4.986a.831.831,0,0,1,0-1.14.765.765,0,0,1,1.105,0l4.846,4.99a.535.535,0,0,0,.751,0l4.846-4.99a.766.766,0,0,1,1.106,0A.832.832,0,0,1,3341.693,1151.21Z" transform="translate(-3327.5 -1148.58)"/></svg>