<svg xmlns="http://www.w3.org/2000/svg" width="20" height="20" viewBox="0 0 20 20"><defs><style>.a{fill:#fff;}</style></defs><path class="a" d="M3033.327,1247.754l-7.9,8.879a.683.683,0,0,0-.132.647l2.475,8.056a.539.539,0,0,0,1.05.008l5.428-16.936C3034.445,1247.779,3033.747,1247.282,3033.327,1247.754Z" transform="translate(-3014.28 -1245.757)"/><path class="a" d="M3033.628,1245.793l-16.936,5.428a.538.538,0,0,0,.008,1.049l8.057,2.475a.682.682,0,0,0,.646-.132l8.879-7.9C3034.756,1246.289,3034.256,1245.591,3033.628,1245.793Z" transform="translate(-3016.279 -1245.757)"/></svg>